<svg width="40" height="40" viewBox="0 0 40 40" fill="none" xmlns="http://www.w3.org/2000/svg">
<g clip-path="url(#clip0_550_100)">
<rect y="-14" width="54" height="54" rx="27" fill="#FED305"/>
<path d="M22.9504 28.0417C17.3921 28.0417 14.8333 24.3617 14.8333 20.1834C14.8333 16.4746 17.3442 13.6284 19.9604 11.0888L20.8229 11.9225L25.95 6.95837C25.95 6.95837 23.8129 9.44046 26.3717 13.1588C28.94 16.8771 30.6458 18.123 30.6458 21.0171C30.6458 25.1859 27.4354 28.0417 22.9504 28.0417ZM22.9504 28.0417C25.5188 28.0417 27.2246 26.3838 27.2246 23.4896C27.2246 22.1863 26.8029 19.7713 23.8129 17.7013C23.8129 17.7013 24.2346 21.8413 22.0975 21.8413C20.4396 21.9659 20.3917 19.7713 20.3917 19.7713C18.2546 21.4292 18.2546 22.905 18.2546 23.9113C18.2546 26.0484 20.3917 28.0417 22.9504 28.0417Z" stroke="black" stroke-width="0.998267"/>
</g>
<defs>
<clipPath id="clip0_550_100">
<rect width="40" height="40" fill="white"/>
</clipPath>
</defs>
</svg>
